<svg width="228" height="66" viewBox="0 0 228 66" fill="none" xmlns="http://www.w3.org/2000/svg">
<path d="M227.718 65.228H216.139V16.9824H227.718V65.228Z" fill="black"/>
<path d="M211.893 55.3641V65.228H174.841V55.3641L197.446 26.4558H176.61V16.9824H210.222V26.4558L187.814 55.3641H211.893Z" fill="black"/>
<path d="M175.612 55.3641V65.228H136.244V55.3641L158.803 26.4558H138.01V16.9824H171.554V26.4558L149.191 55.3641H175.612Z" fill="black"/>
<path d="M104.454 66C99.0652 66 95.0396 64.6681 92.3775 62.0045C89.7154 59.2759 88.3844 55.2155 88.3844 49.8232V16.9824H99.682V48.3614C99.682 50.8302 100.331 52.6168 101.63 53.7212C102.928 54.8257 105.039 55.3779 107.96 55.3779C109.778 55.3779 111.629 55.183 113.512 54.7932C115.395 54.4034 117.148 53.8836 118.771 53.234V16.9824H130.069V65.1229H119.648L119.258 61.8096H118.966C116.304 63.1739 113.739 64.2134 111.272 64.928C108.869 65.6426 106.597 66 104.454 66Z" fill="black"/>
<path d="M63.7942 16.0594C70.3264 16.0594 74.9642 17.9739 77.7077 21.803C80.4512 25.5672 81.823 31.8625 81.823 40.689C81.823 49.6452 80.0266 56.1028 76.434 60.0617C72.9066 64.0206 67.0603 66 58.8951 66C54.7146 66 50.7953 65.7729 47.1373 65.3186C43.5446 64.8643 40.3112 64.2153 37.437 63.3716V0.385986H48.803V19.856C51.0892 18.6229 53.5388 17.6819 56.1516 17.0329C58.7645 16.3839 61.312 16.0594 63.7942 16.0594ZM70.457 40.689C70.457 35.0427 69.7385 31.2135 68.3014 29.2016C66.9297 27.1897 64.0555 26.1838 59.679 26.1838C57.7847 26.1838 55.8577 26.4109 53.898 26.8652C52.0037 27.2546 50.3054 27.8063 48.803 28.5202V54.61C49.9787 54.9345 51.3178 55.1617 52.8202 55.2915C54.3226 55.4213 56.0863 55.4862 58.1113 55.4862C63.141 55.4862 66.4398 54.4802 68.0075 52.4683C69.6405 50.4564 70.457 46.53 70.457 40.689Z" fill="black"/>
<path d="M32.817 48.6659C34.711 52.8923 36.6299 57.1742 37.4375 62.2539L37.4375 0.385986C36.6299 5.46479 34.7112 9.74638 32.8173 13.9726L32.8142 13.9796C32.6825 14.2734 32.551 14.5669 32.42 14.8605V1.92983C31.5856 6.96826 29.5178 11.2107 27.4746 15.4027L27.4744 15.403C26.7885 16.8103 26.1054 18.212 25.4726 19.6361L25.4726 4.24562C24.75 8.6855 23.5214 12.4786 22.3213 16.1835C20.5864 21.5396 18.9112 26.7112 18.9112 33.386C18.9112 40.0604 20.5862 45.2314 22.321 50.587C23.5212 54.2921 24.75 58.0855 25.4726 62.5263L25.4726 45.2056C26.1053 46.6296 26.7884 48.031 27.4743 49.4382C29.5176 53.6302 31.5855 57.873 32.42 62.9123V47.7789C32.5519 48.0744 32.6844 48.3701 32.817 48.6659Z" fill="black"/>
<path d="M16.2382 51.5567C17.0511 54.7179 17.8927 57.9906 18.5252 61.7544L18.5252 6.56141C17.8927 10.3243 17.0513 13.5966 16.2385 16.7575C14.8301 22.2347 13.5077 27.3773 13.5077 34.1579C13.5077 40.938 14.8299 46.08 16.2382 51.5567Z" fill="black"/>
<path d="M9.64802 60.5965C9.42312 59.3361 9.2035 58.1353 8.99174 56.9775C7.60853 49.4146 6.5603 43.6833 6.5603 35.1228C6.5603 26.5611 7.60885 20.8284 8.99236 13.2644C9.20393 12.1077 9.42335 10.9081 9.64803 9.64913L9.64802 60.5965Z" fill="black"/>
<path d="M0 36.3375C-7.65598e-07 45.4475 0.494942 51.0076 1.36109 59.8473L1.36109 12.8277C0.494939 21.588 8.27254e-07 27.2274 0 36.3375Z" fill="black"/>
<path d="M216 4C216 2.89543 216.895 2 218 2H226C227.105 2 228 2.89543 228 4V11C228 12.1046 227.105 13 226 13H218C216.895 13 216 12.1046 216 11V4Z" fill="black"/>
</svg>
